<?xml version="1.0" encoding="UTF-8" standalone="no"?>
<!DOCTYPE svg PUBLIC "-//W3C//DTD SVG 1.1//EN"
 "http://www.w3.org/Graphics/SVG/1.1/DTD/svg11.dtd">
<!-- Generated by graphviz version 12.1.2 (0)
 -->
<!-- Title: linkedList Pages: 1 -->
<svg width="1182pt" height="192pt"
 viewBox="0.00 0.00 1182.00 192.00" xmlns="http://www.w3.org/2000/svg" xmlns:xlink="http://www.w3.org/1999/xlink">
<g id="graph0" class="graph" transform="scale(1 1) rotate(0) translate(4 188)">
<title>linkedList</title>
<polygon fill="white" stroke="none" points="-4,4 -4,-188 1178,-188 1178,4 -4,4"/>
<!-- 0 -->
<g id="node1" class="node">
<title>0</title>
<path fill="#fdf4e3" stroke="black" d="M12,-24.5C12,-24.5 70,-24.5 70,-24.5 76,-24.5 82,-30.5 82,-36.5 82,-36.5 82,-98.5 82,-98.5 82,-104.5 76,-110.5 70,-110.5 70,-110.5 12,-110.5 12,-110.5 6,-110.5 0,-104.5 0,-98.5 0,-98.5 0,-36.5 0,-36.5 0,-30.5 6,-24.5 12,-24.5"/>
<text text-anchor="middle" x="41" y="-97" font-family="JetBrains Mono" font-size="10.00">index = 0</text>
<polyline fill="none" stroke="black" points="0,-89 82,-89"/>
<text text-anchor="middle" x="41" y="-75.5" font-family="JetBrains Mono" font-size="10.00">data = &#45;666</text>
<polyline fill="none" stroke="black" points="0,-67.5 82,-67.5"/>
<text text-anchor="middle" x="41" y="-54" font-family="JetBrains Mono" font-size="10.00">next = 2</text>
<polyline fill="none" stroke="black" points="0,-46 82,-46"/>
<text text-anchor="middle" x="41" y="-32.5" font-family="JetBrains Mono" font-size="10.00">prev = 1</text>
</g>
<!-- 1 -->
<g id="node2" class="node">
<title>1</title>
<path fill="#cc99fe" stroke="black" d="M333,-24.5C333,-24.5 385,-24.5 385,-24.5 391,-24.5 397,-30.5 397,-36.5 397,-36.5 397,-98.5 397,-98.5 397,-104.5 391,-110.5 385,-110.5 385,-110.5 333,-110.5 333,-110.5 327,-110.5 321,-104.5 321,-98.5 321,-98.5 321,-36.5 321,-36.5 321,-30.5 327,-24.5 333,-24.5"/>
<text text-anchor="middle" x="359" y="-97" font-family="JetBrains Mono" font-size="10.00">index = 1</text>
<polyline fill="none" stroke="black" points="321,-89 397,-89"/>
<text text-anchor="middle" x="359" y="-75.5" font-family="JetBrains Mono" font-size="10.00">data = 444</text>
<polyline fill="none" stroke="black" points="321,-67.5 397,-67.5"/>
<text text-anchor="middle" x="359" y="-54" font-family="JetBrains Mono" font-size="10.00">next = 0</text>
<polyline fill="none" stroke="black" points="321,-46 397,-46"/>
<text text-anchor="middle" x="359" y="-32.5" font-family="JetBrains Mono" font-size="10.00">prev = 3</text>
</g>
<!-- 0&#45;&gt;1 -->
<g id="edge12" class="edge">
<title>0&#45;&gt;1</title>
<path fill="none" stroke="#ff0000" stroke-width="2.5" d="M54.67,-24.04C54.67,-17.02 54.67,-12 54.67,-12 54.67,-12 371.67,-12 371.67,-12 371.67,-12 371.67,-15.62 371.67,-16.18"/>
<path fill="none" stroke="black" stroke-width="2.5" d="M371.67,-16.18C371.67,-16.23 371.67,-16.26 371.67,-16.26"/>
<polygon fill="black" stroke="black" stroke-width="2.5" points="370.27,-16.26 371.67,-20.26 373.07,-16.26 370.27,-16.26"/>
</g>
<!-- 2 -->
<g id="node3" class="node">
<title>2</title>
<path fill="#cc99fe" stroke="black" d="M123,-24.5C123,-24.5 175,-24.5 175,-24.5 181,-24.5 187,-30.5 187,-36.5 187,-36.5 187,-98.5 187,-98.5 187,-104.5 181,-110.5 175,-110.5 175,-110.5 123,-110.5 123,-110.5 117,-110.5 111,-104.5 111,-98.5 111,-98.5 111,-36.5 111,-36.5 111,-30.5 117,-24.5 123,-24.5"/>
<text text-anchor="middle" x="149" y="-97" font-family="JetBrains Mono" font-size="10.00">index = 2</text>
<polyline fill="none" stroke="black" points="111,-89 187,-89"/>
<text text-anchor="middle" x="149" y="-75.5" font-family="JetBrains Mono" font-size="10.00">data = 222</text>
<polyline fill="none" stroke="black" points="111,-67.5 187,-67.5"/>
<text text-anchor="middle" x="149" y="-54" font-family="JetBrains Mono" font-size="10.00">next = 3</text>
<polyline fill="none" stroke="black" points="111,-46 187,-46"/>
<text text-anchor="middle" x="149" y="-32.5" font-family="JetBrains Mono" font-size="10.00">prev = 0</text>
</g>
<!-- 0&#45;&gt;2 -->
<g id="edge10" class="edge">
<title>0&#45;&gt;2</title>
<path fill="none" stroke="#00bfff" stroke-width="2" d="M82.45,-82C82.45,-82 103.61,-82 103.65,-82"/>
<path fill="none" stroke="black" stroke-width="2" d="M103.65,-82C103.65,-82 103.65,-82 103.65,-82"/>
<polygon fill="black" stroke="black" stroke-width="2" points="103.65,-83.4 107.65,-82 103.65,-80.6 103.65,-83.4"/>
</g>
<!-- 1&#45;&gt;0 -->
<g id="edge11" class="edge">
<title>1&#45;&gt;0</title>
<path fill="none" stroke="#00bfff" stroke-width="2" d="M346.33,-24.37C346.33,-11.14 346.33,0 346.33,0 346.33,0 27.33,0 27.33,0 27.33,0 27.33,-16.63 27.33,-17.32"/>
<path fill="none" stroke="black" stroke-width="2" d="M27.33,-17.32C27.33,-17.33 27.33,-17.34 27.33,-17.34"/>
<polygon fill="black" stroke="black" stroke-width="2" points="25.93,-17.34 27.33,-21.34 28.73,-17.34 25.93,-17.34"/>
</g>
<!-- 3 -->
<g id="node4" class="node">
<title>3</title>
<path fill="#cc99fe" stroke="black" d="M228,-24.5C228,-24.5 280,-24.5 280,-24.5 286,-24.5 292,-30.5 292,-36.5 292,-36.5 292,-98.5 292,-98.5 292,-104.5 286,-110.5 280,-110.5 280,-110.5 228,-110.5 228,-110.5 222,-110.5 216,-104.5 216,-98.5 216,-98.5 216,-36.5 216,-36.5 216,-30.5 222,-24.5 228,-24.5"/>
<text text-anchor="middle" x="254" y="-97" font-family="JetBrains Mono" font-size="10.00">index = 3</text>
<polyline fill="none" stroke="black" points="216,-89 292,-89"/>
<text text-anchor="middle" x="254" y="-75.5" font-family="JetBrains Mono" font-size="10.00">data = 333</text>
<polyline fill="none" stroke="black" points="216,-67.5 292,-67.5"/>
<text text-anchor="middle" x="254" y="-54" font-family="JetBrains Mono" font-size="10.00">next = 1</text>
<polyline fill="none" stroke="black" points="216,-46 292,-46"/>
<text text-anchor="middle" x="254" y="-32.5" font-family="JetBrains Mono" font-size="10.00">prev = 2</text>
</g>
<!-- 1&#45;&gt;3 -->
<g id="edge13" class="edge">
<title>1&#45;&gt;3</title>
<path fill="none" stroke="#ff0000" stroke-width="2.5" d="M320.8,-82C320.8,-82 300.18,-82 300.14,-82"/>
<path fill="none" stroke="black" stroke-width="2.5" d="M300.14,-82C300.14,-82 300.14,-82 300.14,-82"/>
<polygon fill="black" stroke="black" stroke-width="2.5" points="300.14,-80.6 296.14,-82 300.14,-83.4 300.14,-80.6"/>
</g>
<!-- 2&#45;&gt;0 -->
<g id="edge15" class="edge">
<title>2&#45;&gt;0</title>
<path fill="none" stroke="#ff0000" stroke-width="2.5" d="M110.62,-53C110.62,-53 90.01,-53 89.97,-53"/>
<path fill="none" stroke="black" stroke-width="2.5" d="M89.97,-53C89.97,-53 89.97,-53 89.97,-53"/>
<polygon fill="black" stroke="black" stroke-width="2.5" points="89.97,-51.6 85.97,-53 89.97,-54.4 89.97,-51.6"/>
</g>
<!-- 2&#45;&gt;3 -->
<g id="edge2" class="edge">
<title>2&#45;&gt;3</title>
<path fill="none" stroke="#00bfff" stroke-width="2" d="M187.2,-82C187.2,-82 208.58,-82 208.62,-82"/>
<path fill="none" stroke="black" stroke-width="2" d="M208.62,-82C208.62,-82 208.62,-82 208.62,-82"/>
<polygon fill="black" stroke="black" stroke-width="2" points="208.62,-83.4 212.62,-82 208.62,-80.6 208.62,-83.4"/>
</g>
<!-- 3&#45;&gt;1 -->
<g id="edge3" class="edge">
<title>3&#45;&gt;1</title>
<path fill="none" stroke="#00bfff" stroke-width="2" d="M292.2,-53C292.2,-53 313.58,-53 313.62,-53"/>
<path fill="none" stroke="black" stroke-width="2" d="M313.62,-53C313.62,-53 313.62,-53 313.62,-53"/>
<polygon fill="black" stroke="black" stroke-width="2" points="313.62,-54.4 317.62,-53 313.62,-51.6 313.62,-54.4"/>
</g>
<!-- 3&#45;&gt;2 -->
<g id="edge14" class="edge">
<title>3&#45;&gt;2</title>
<path fill="none" stroke="#ff0000" stroke-width="2.5" d="M215.8,-53C215.8,-53 195.18,-53 195.14,-53"/>
<path fill="none" stroke="black" stroke-width="2.5" d="M195.14,-53C195.14,-53 195.14,-53 195.14,-53"/>
<polygon fill="black" stroke="black" stroke-width="2.5" points="195.14,-51.6 191.14,-53 195.14,-54.4 195.14,-51.6"/>
</g>
<!-- 4 -->
<g id="node5" class="node">
<title>4</title>
<path fill="#808080" stroke="black" d="M438,-24.5C438,-24.5 496,-24.5 496,-24.5 502,-24.5 508,-30.5 508,-36.5 508,-36.5 508,-98.5 508,-98.5 508,-104.5 502,-110.5 496,-110.5 496,-110.5 438,-110.5 438,-110.5 432,-110.5 426,-104.5 426,-98.5 426,-98.5 426,-36.5 426,-36.5 426,-30.5 432,-24.5 438,-24.5"/>
<text text-anchor="middle" x="467" y="-97" font-family="JetBrains Mono" font-size="10.00">index = 4</text>
<polyline fill="none" stroke="black" points="426,-89 508,-89"/>
<text text-anchor="middle" x="467" y="-75.5" font-family="JetBrains Mono" font-size="10.00">data = &#45;666</text>
<polyline fill="none" stroke="black" points="426,-67.5 508,-67.5"/>
<text text-anchor="middle" x="467" y="-54" font-family="JetBrains Mono" font-size="10.00">next = 5</text>
<polyline fill="none" stroke="black" points="426,-46 508,-46"/>
<text text-anchor="middle" x="467" y="-32.5" font-family="JetBrains Mono" font-size="10.00">prev = &#45;1</text>
</g>
<!-- 5 -->
<g id="node6" class="node">
<title>5</title>
<path fill="#808080" stroke="black" d="M549,-24.5C549,-24.5 607,-24.5 607,-24.5 613,-24.5 619,-30.5 619,-36.5 619,-36.5 619,-98.5 619,-98.5 619,-104.5 613,-110.5 607,-110.5 607,-110.5 549,-110.5 549,-110.5 543,-110.5 537,-104.5 537,-98.5 537,-98.5 537,-36.5 537,-36.5 537,-30.5 543,-24.5 549,-24.5"/>
<text text-anchor="middle" x="578" y="-97" font-family="JetBrains Mono" font-size="10.00">index = 5</text>
<polyline fill="none" stroke="black" points="537,-89 619,-89"/>
<text text-anchor="middle" x="578" y="-75.5" font-family="JetBrains Mono" font-size="10.00">data = &#45;666</text>
<polyline fill="none" stroke="black" points="537,-67.5 619,-67.5"/>
<text text-anchor="middle" x="578" y="-54" font-family="JetBrains Mono" font-size="10.00">next = 6</text>
<polyline fill="none" stroke="black" points="537,-46 619,-46"/>
<text text-anchor="middle" x="578" y="-32.5" font-family="JetBrains Mono" font-size="10.00">prev = &#45;1</text>
</g>
<!-- 4&#45;&gt;5 -->
<g id="edge4" class="edge">
<title>4&#45;&gt;5</title>
<path fill="none" stroke="#00bfff" stroke-width="2" d="M508.33,-67.5C508.33,-67.5 529.56,-67.5 529.61,-67.5"/>
<path fill="none" stroke="black" stroke-width="2" d="M529.61,-67.5C529.61,-67.5 529.61,-67.5 529.61,-67.5"/>
<polygon fill="black" stroke="black" stroke-width="2" points="529.61,-68.9 533.61,-67.5 529.61,-66.1 529.61,-68.9"/>
</g>
<!-- 6 -->
<g id="node7" class="node">
<title>6</title>
<path fill="#808080" stroke="black" d="M660,-24.5C660,-24.5 718,-24.5 718,-24.5 724,-24.5 730,-30.5 730,-36.5 730,-36.5 730,-98.5 730,-98.5 730,-104.5 724,-110.5 718,-110.5 718,-110.5 660,-110.5 660,-110.5 654,-110.5 648,-104.5 648,-98.5 648,-98.5 648,-36.5 648,-36.5 648,-30.5 654,-24.5 660,-24.5"/>
<text text-anchor="middle" x="689" y="-97" font-family="JetBrains Mono" font-size="10.00">index = 6</text>
<polyline fill="none" stroke="black" points="648,-89 730,-89"/>
<text text-anchor="middle" x="689" y="-75.5" font-family="JetBrains Mono" font-size="10.00">data = &#45;666</text>
<polyline fill="none" stroke="black" points="648,-67.5 730,-67.5"/>
<text text-anchor="middle" x="689" y="-54" font-family="JetBrains Mono" font-size="10.00">next = 7</text>
<polyline fill="none" stroke="black" points="648,-46 730,-46"/>
<text text-anchor="middle" x="689" y="-32.5" font-family="JetBrains Mono" font-size="10.00">prev = &#45;1</text>
</g>
<!-- 5&#45;&gt;6 -->
<g id="edge5" class="edge">
<title>5&#45;&gt;6</title>
<path fill="none" stroke="#00bfff" stroke-width="2" d="M619.33,-67.5C619.33,-67.5 640.56,-67.5 640.61,-67.5"/>
<path fill="none" stroke="black" stroke-width="2" d="M640.61,-67.5C640.61,-67.5 640.61,-67.5 640.61,-67.5"/>
<polygon fill="black" stroke="black" stroke-width="2" points="640.61,-68.9 644.61,-67.5 640.61,-66.1 640.61,-68.9"/>
</g>
<!-- 7 -->
<g id="node8" class="node">
<title>7</title>
<path fill="#808080" stroke="black" d="M771,-24.5C771,-24.5 829,-24.5 829,-24.5 835,-24.5 841,-30.5 841,-36.5 841,-36.5 841,-98.5 841,-98.5 841,-104.5 835,-110.5 829,-110.5 829,-110.5 771,-110.5 771,-110.5 765,-110.5 759,-104.5 759,-98.5 759,-98.5 759,-36.5 759,-36.5 759,-30.5 765,-24.5 771,-24.5"/>
<text text-anchor="middle" x="800" y="-97" font-family="JetBrains Mono" font-size="10.00">index = 7</text>
<polyline fill="none" stroke="black" points="759,-89 841,-89"/>
<text text-anchor="middle" x="800" y="-75.5" font-family="JetBrains Mono" font-size="10.00">data = &#45;666</text>
<polyline fill="none" stroke="black" points="759,-67.5 841,-67.5"/>
<text text-anchor="middle" x="800" y="-54" font-family="JetBrains Mono" font-size="10.00">next = 8</text>
<polyline fill="none" stroke="black" points="759,-46 841,-46"/>
<text text-anchor="middle" x="800" y="-32.5" font-family="JetBrains Mono" font-size="10.00">prev = &#45;1</text>
</g>
<!-- 6&#45;&gt;7 -->
<g id="edge6" class="edge">
<title>6&#45;&gt;7</title>
<path fill="none" stroke="#00bfff" stroke-width="2" d="M730.33,-67.5C730.33,-67.5 751.56,-67.5 751.61,-67.5"/>
<path fill="none" stroke="black" stroke-width="2" d="M751.61,-67.5C751.61,-67.5 751.61,-67.5 751.61,-67.5"/>
<polygon fill="black" stroke="black" stroke-width="2" points="751.61,-68.9 755.61,-67.5 751.61,-66.1 751.61,-68.9"/>
</g>
<!-- 8 -->
<g id="node9" class="node">
<title>8</title>
<path fill="#808080" stroke="black" d="M882,-24.5C882,-24.5 940,-24.5 940,-24.5 946,-24.5 952,-30.5 952,-36.5 952,-36.5 952,-98.5 952,-98.5 952,-104.5 946,-110.5 940,-110.5 940,-110.5 882,-110.5 882,-110.5 876,-110.5 870,-104.5 870,-98.5 870,-98.5 870,-36.5 870,-36.5 870,-30.5 876,-24.5 882,-24.5"/>
<text text-anchor="middle" x="911" y="-97" font-family="JetBrains Mono" font-size="10.00">index = 8</text>
<polyline fill="none" stroke="black" points="870,-89 952,-89"/>
<text text-anchor="middle" x="911" y="-75.5" font-family="JetBrains Mono" font-size="10.00">data = &#45;666</text>
<polyline fill="none" stroke="black" points="870,-67.5 952,-67.5"/>
<text text-anchor="middle" x="911" y="-54" font-family="JetBrains Mono" font-size="10.00">next = 9</text>
<polyline fill="none" stroke="black" points="870,-46 952,-46"/>
<text text-anchor="middle" x="911" y="-32.5" font-family="JetBrains Mono" font-size="10.00">prev = &#45;1</text>
</g>
<!-- 7&#45;&gt;8 -->
<g id="edge7" class="edge">
<title>7&#45;&gt;8</title>
<path fill="none" stroke="#00bfff" stroke-width="2" d="M841.33,-67.5C841.33,-67.5 862.56,-67.5 862.61,-67.5"/>
<path fill="none" stroke="black" stroke-width="2" d="M862.61,-67.5C862.61,-67.5 862.61,-67.5 862.61,-67.5"/>
<polygon fill="black" stroke="black" stroke-width="2" points="862.61,-68.9 866.61,-67.5 862.61,-66.1 862.61,-68.9"/>
</g>
<!-- 9 -->
<g id="node10" class="node">
<title>9</title>
<path fill="#808080" stroke="black" d="M993,-24.5C993,-24.5 1051,-24.5 1051,-24.5 1057,-24.5 1063,-30.5 1063,-36.5 1063,-36.5 1063,-98.5 1063,-98.5 1063,-104.5 1057,-110.5 1051,-110.5 1051,-110.5 993,-110.5 993,-110.5 987,-110.5 981,-104.5 981,-98.5 981,-98.5 981,-36.5 981,-36.5 981,-30.5 987,-24.5 993,-24.5"/>
<text text-anchor="middle" x="1022" y="-97" font-family="JetBrains Mono" font-size="10.00">index = 9</text>
<polyline fill="none" stroke="black" points="981,-89 1063,-89"/>
<text text-anchor="middle" x="1022" y="-75.5" font-family="JetBrains Mono" font-size="10.00">data = &#45;666</text>
<polyline fill="none" stroke="black" points="981,-67.5 1063,-67.5"/>
<text text-anchor="middle" x="1022" y="-54" font-family="JetBrains Mono" font-size="10.00">next = 10</text>
<polyline fill="none" stroke="black" points="981,-46 1063,-46"/>
<text text-anchor="middle" x="1022" y="-32.5" font-family="JetBrains Mono" font-size="10.00">prev = &#45;1</text>
</g>
<!-- 8&#45;&gt;9 -->
<g id="edge8" class="edge">
<title>8&#45;&gt;9</title>
<path fill="none" stroke="#00bfff" stroke-width="2" d="M952.33,-67.5C952.33,-67.5 973.56,-67.5 973.61,-67.5"/>
<path fill="none" stroke="black" stroke-width="2" d="M973.61,-67.5C973.61,-67.5 973.61,-67.5 973.61,-67.5"/>
<polygon fill="black" stroke="black" stroke-width="2" points="973.61,-68.9 977.61,-67.5 973.61,-66.1 973.61,-68.9"/>
</g>
<!-- 10 -->
<g id="node11" class="node">
<title>10</title>
<path fill="#808080" stroke="black" d="M1104,-24.5C1104,-24.5 1162,-24.5 1162,-24.5 1168,-24.5 1174,-30.5 1174,-36.5 1174,-36.5 1174,-98.5 1174,-98.5 1174,-104.5 1168,-110.5 1162,-110.5 1162,-110.5 1104,-110.5 1104,-110.5 1098,-110.5 1092,-104.5 1092,-98.5 1092,-98.5 1092,-36.5 1092,-36.5 1092,-30.5 1098,-24.5 1104,-24.5"/>
<text text-anchor="middle" x="1133" y="-97" font-family="JetBrains Mono" font-size="10.00">index = 10</text>
<polyline fill="none" stroke="black" points="1092,-89 1174,-89"/>
<text text-anchor="middle" x="1133" y="-75.5" font-family="JetBrains Mono" font-size="10.00">data = &#45;666</text>
<polyline fill="none" stroke="black" points="1092,-67.5 1174,-67.5"/>
<text text-anchor="middle" x="1133" y="-54" font-family="JetBrains Mono" font-size="10.00">next = 0</text>
<polyline fill="none" stroke="black" points="1092,-46 1174,-46"/>
<text text-anchor="middle" x="1133" y="-32.5" font-family="JetBrains Mono" font-size="10.00">prev = &#45;1</text>
</g>
<!-- 9&#45;&gt;10 -->
<g id="edge9" class="edge">
<title>9&#45;&gt;10</title>
<path fill="none" stroke="#00bfff" stroke-width="2" d="M1063.33,-67.5C1063.33,-67.5 1084.56,-67.5 1084.61,-67.5"/>
<path fill="none" stroke="black" stroke-width="2" d="M1084.61,-67.5C1084.61,-67.5 1084.61,-67.5 1084.61,-67.5"/>
<polygon fill="black" stroke="black" stroke-width="2" points="1084.61,-68.9 1088.61,-67.5 1084.61,-66.1 1084.61,-68.9"/>
</g>
<!-- free -->
<g id="node12" class="node">
<title>free</title>
<path fill="#ffc0cb" stroke="black" d="M447,-147.5C447,-147.5 487,-147.5 487,-147.5 493,-147.5 499,-153.5 499,-159.5 499,-159.5 499,-171.5 499,-171.5 499,-177.5 493,-183.5 487,-183.5 487,-183.5 447,-183.5 447,-183.5 441,-183.5 435,-177.5 435,-171.5 435,-171.5 435,-159.5 435,-159.5 435,-153.5 441,-147.5 447,-147.5"/>
<text text-anchor="middle" x="467" y="-162.75" font-family="JetBrains Mono" font-size="10.00">free = 4</text>
</g>
<!-- free&#45;&gt;4 -->
<g id="edge1" class="edge">
<title>free&#45;&gt;4</title>
<path fill="none" stroke="#00bfff" stroke-width="2" d="M467,-147.07C467,-147.07 467,-117.74 467,-117.68"/>
<path fill="none" stroke="black" stroke-width="2" d="M467,-117.68C467,-117.68 467,-117.68 467,-117.68"/>
<polygon fill="black" stroke="black" stroke-width="2" points="468.4,-117.68 467,-113.68 465.6,-117.68 468.4,-117.68"/>
</g>
</g>
</svg>
